<svg width="32" height="16" viewBox="0 0 32 16" fill="none" xmlns="http://www.w3.org/2000/svg">
<g clip-path="url(#clip0_1651_41)">
<path d="M6.87036 15.1113H25.1292C28.4039 15.1113 31.0586 12.5643 31.0586 9.42244V6.578C31.0586 3.43611 28.4039 0.889107 25.1292 0.889107H6.87036C3.59563 0.889107 0.940947 3.43611 0.940947 6.578V9.42244C0.940947 12.5643 3.59563 15.1113 6.87036 15.1113Z" stroke="currentColor" stroke-width="1.40551" stroke-linecap="round"/>
<path d="M8.01107 13.334H23.9875C26.8529 13.334 29.1758 11.4237 29.1758 9.06732V6.93398C29.1758 4.57757 26.8529 2.66732 23.9875 2.66732H8.01107C5.14569 2.66732 2.82284 4.57757 2.82284 6.93398V9.06732C2.82284 11.4237 5.14569 13.334 8.01107 13.334Z" fill="currentColor"/>
</g>
<defs>
<clipPath id="clip0_1651_41">
<rect width="32" height="16" fill="currentColor" transform="matrix(-1 0 0 -1 32 16)"/>
</clipPath>
</defs>
</svg>
