<svg width="32" height="16" viewBox="0 0 32 16" fill="none" xmlns="http://www.w3.org/2000/svg">
<g clip-path="url(#clip0_1651_32)">
<path d="M25.1296 0.888672H6.87082C3.59609 0.888672 0.941406 3.43567 0.941406 6.57756V9.422C0.941406 12.5639 3.59609 15.1109 6.87082 15.1109H25.1296C28.4044 15.1109 31.0591 12.5639 31.0591 9.422V6.57756C31.0591 3.43567 28.4044 0.888672 25.1296 0.888672Z" stroke="currentColor" stroke-width="1.40551" stroke-linecap="round"/>
<path d="M8.1154 2.66602H4.12128C3.40493 2.66602 2.82422 4.57627 2.82422 6.93268V9.06602C2.82422 11.4224 3.40493 13.3327 4.12128 13.3327H8.1154C8.83174 13.3327 9.41245 11.4224 9.41245 9.06602V6.93268C9.41245 4.57627 8.83174 2.66602 8.1154 2.66602Z" fill="currentColor"/>
</g>
<defs>
<clipPath id="clip0_1651_32">
<rect width="32" height="16" fill="currentColor"/>
</clipPath>
</defs>
</svg>
