<svg width="32" height="16" viewBox="0 0 32 16" fill="none" xmlns="http://www.w3.org/2000/svg">
<g clip-path="url(#clip0_1651_38)">
<path d="M25.1296 0.888672H6.87082C3.59609 0.888672 0.941406 3.43567 0.941406 6.57756V9.422C0.941406 12.5639 3.59609 15.1109 6.87082 15.1109H25.1296C28.4044 15.1109 31.0591 12.5639 31.0591 9.422V6.57756C31.0591 3.43567 28.4044 0.888672 25.1296 0.888672Z" stroke="currentColor" stroke-width="1.40551" stroke-linecap="round"/>
<path d="M18.6978 2.66602H6.7154C4.56636 2.66602 2.82422 4.57627 2.82422 6.93268V9.06602C2.82422 11.4224 4.56636 13.3327 6.7154 13.3327H18.6978C20.8468 13.3327 22.5889 11.4224 22.5889 9.06602V6.93268C22.5889 4.57627 20.8468 2.66602 18.6978 2.66602Z" fill="currentColor"/>
</g>
<defs>
<clipPath id="clip0_1651_38">
<rect width="32" height="16" fill="currentColor"/>
</clipPath>
</defs>
</svg>
