<svg width="32" height="16" viewBox="0 0 32 16" fill="none" xmlns="http://www.w3.org/2000/svg">
<g clip-path="url(#clip0_1651_35)">
<path d="M25.1296 0.888672H6.87082C3.59609 0.888672 0.941406 3.43567 0.941406 6.57756V9.422C0.941406 12.5639 3.59609 15.1109 6.87082 15.1109H25.1296C28.4044 15.1109 31.0591 12.5639 31.0591 9.422V6.57756C31.0591 3.43567 28.4044 0.888672 25.1296 0.888672Z" stroke="currentColor" stroke-width="1.40551" stroke-linecap="round"/>
<path d="M13.4066 2.66602H5.41834C3.98564 2.66602 2.82422 4.57627 2.82422 6.93268V9.06602C2.82422 11.4224 3.98564 13.3327 5.41834 13.3327H13.4066C14.8393 13.3327 16.0007 11.4224 16.0007 9.06602V6.93268C16.0007 4.57627 14.8393 2.66602 13.4066 2.66602Z" fill="currentColor"/>
</g>
<defs>
<clipPath id="clip0_1651_35">
<rect width="32" height="16" fill="currentColor"/>
</clipPath>
</defs>
</svg>
