<svg width="32" height="32" viewBox="0 0 32 32" fill="none" xmlns="http://www.w3.org/2000/svg">
<path d="M5.71349 11.4286C4.58347 11.4286 3.47882 11.0934 2.53925 10.4655C1.59967 9.83765 0.867356 8.9452 0.434916 7.90105C0.00247556 6.8569 -0.110671 5.70795 0.109786 4.59949C0.330242 3.49102 0.874399 2.47284 1.67344 1.67368C2.47249 0.874521 3.49054 0.330288 4.59884 0.109801C5.70715 -0.110686 6.85594 0.00247591 7.89995 0.434977C8.94395 0.867477 9.83628 1.59989 10.4641 2.5396C11.0919 3.47931 11.427 4.58411 11.427 5.71429H9.14158C9.14158 5.03618 8.94053 4.3733 8.56385 3.80948C8.18716 3.24565 7.65177 2.8062 7.02536 2.5467C6.39896 2.2872 5.70969 2.2193 5.0447 2.3516C4.37972 2.48389 3.76889 2.81043 3.28946 3.28992C2.81004 3.76942 2.48354 4.38033 2.35127 5.04541C2.21899 5.71049 2.28688 6.39986 2.54635 7.02635C2.80581 7.65284 3.2452 8.18831 3.80894 8.56504C4.37269 8.94178 5.03548 9.14286 5.71349 9.14286V11.4286Z" fill="#FFBC3F"/>
<path d="M26.2877 11.4286V9.14286C26.9657 9.14286 27.6285 8.94178 28.1923 8.56504C28.756 8.18831 29.1954 7.65284 29.4549 7.02635C29.7143 6.39986 29.7822 5.71049 29.6499 5.04541C29.5177 4.38033 29.1912 3.76942 28.7117 3.28992C28.2323 2.81043 27.6215 2.48389 26.9565 2.3516C26.2915 2.2193 25.6022 2.2872 24.9758 2.5467C24.3494 2.8062 23.814 3.24565 23.4374 3.80948C23.0607 4.3733 22.8596 5.03618 22.8596 5.71429H20.5742C20.5742 4.58411 20.9093 3.47931 21.5371 2.5396C22.1649 1.59989 23.0572 0.867477 24.1012 0.434977C25.1453 0.00247591 26.294 -0.110686 27.4024 0.109801C28.5107 0.330288 29.5287 0.874521 30.3278 1.67368C31.1268 2.47284 31.671 3.49102 31.8914 4.59949C32.1119 5.70795 31.9987 6.8569 31.5663 7.90105C31.1338 8.9452 30.4015 9.83765 29.462 10.4655C28.5224 11.0934 27.4177 11.4286 26.2877 11.4286Z" fill="#FFBC3F"/>
<path d="M5.71349 32.0008C4.19818 32.0008 2.74493 31.3988 1.67344 30.3272C0.601955 29.2555 0 27.8021 0 26.2866C0 24.771 0.601955 23.3176 1.67344 22.2459C2.74493 21.1743 4.19818 20.5723 5.71349 20.5723V22.858C5.03548 22.858 4.37269 23.0591 3.80894 23.4358C3.24519 23.8125 2.80581 24.348 2.54634 24.9745C2.28688 25.601 2.21899 26.2904 2.35127 26.9554C2.48354 27.6205 2.81003 28.2314 3.28946 28.7109C3.76889 29.1904 4.37972 29.517 5.0447 29.6492C5.70969 29.7815 6.39896 29.7136 7.02536 29.4541C7.65176 29.1946 8.18716 28.7552 8.56384 28.1914C8.94053 27.6275 9.14158 26.9647 9.14158 26.2866H11.427C11.4253 27.8016 10.8228 29.254 9.7517 30.3253C8.68057 31.3966 7.22829 31.9992 5.71349 32.0008Z" fill="#FFBC3F"/>
<path d="M26.2877 32.0008C24.7729 31.9992 23.3206 31.3966 22.2495 30.3253C21.1784 29.254 20.5759 27.8016 20.5742 26.2866H22.8596C22.8596 26.9647 23.0607 27.6275 23.4374 28.1914C23.814 28.7552 24.3494 29.1946 24.9758 29.4541C25.6022 29.7136 26.2915 29.7815 26.9565 29.6492C27.6215 29.517 28.2323 29.1904 28.7117 28.7109C29.1912 28.2314 29.5177 27.6205 29.6499 26.9554C29.7822 26.2904 29.7143 25.601 29.4549 24.9745C29.1954 24.348 28.756 23.8125 28.1923 23.4358C27.6285 23.0591 26.9657 22.858 26.2877 22.858V20.5723C27.803 20.5723 29.2563 21.1743 30.3278 22.2459C31.3992 23.3176 32.0012 24.771 32.0012 26.2866C32.0012 27.8021 31.3992 29.2555 30.3278 30.3272C29.2563 31.3988 27.803 32.0008 26.2877 32.0008Z" fill="#FFBC3F"/>
<path d="M20.5681 18.9565V13.0459L27.0895 6.52349C27.1986 6.41807 27.2857 6.29196 27.3456 6.15253C27.4055 6.0131 27.437 5.86313 27.4383 5.71138C27.4396 5.55963 27.4107 5.40914 27.3533 5.26869C27.2958 5.12824 27.2109 5.00063 27.1037 4.89333C26.9964 4.78602 26.8688 4.70116 26.7283 4.6437C26.5879 4.58623 26.4374 4.55732 26.2857 4.55864C26.134 4.55996 25.984 4.59148 25.8446 4.65138C25.7052 4.71127 25.5791 4.79834 25.4737 4.90749L20.3322 10.0504C20.0444 9.12554 19.4686 8.31698 18.6887 7.7428C17.9088 7.16861 16.9657 6.8589 15.9973 6.8589C15.0289 6.8589 14.0859 7.16861 13.306 7.7428C12.5261 8.31698 11.9502 9.12554 11.6625 10.0504L6.52094 4.90749C6.41488 4.80133 6.28894 4.7171 6.15032 4.65964C6.01169 4.60217 5.86311 4.5726 5.71305 4.5726C5.56299 4.5726 5.41441 4.60217 5.27578 4.65964C5.13716 4.7171 5.01122 4.80133 4.90516 4.90749C4.79901 5.01357 4.7148 5.13953 4.65734 5.27817C4.59989 5.41681 4.57031 5.56542 4.57031 5.71549C4.57031 5.86557 4.59989 6.01418 4.65734 6.15282C4.7148 6.29146 4.79901 6.41742 4.90516 6.52349L11.4265 13.0459V18.9565L4.90516 25.4789C4.79901 25.585 4.7148 25.711 4.65734 25.8496C4.59989 25.9882 4.57031 26.1368 4.57031 26.2869C4.57031 26.437 4.59989 26.5856 4.65734 26.7243C4.7148 26.8629 4.79901 26.9889 4.90516 27.0949C5.01122 27.2011 5.13716 27.2853 5.27578 27.3428C5.41441 27.4002 5.56299 27.4298 5.71305 27.4298C5.86311 27.4298 6.01169 27.4002 6.15032 27.3428C6.28894 27.2853 6.41488 27.2011 6.52094 27.0949L11.6631 21.9521C11.9508 22.8769 12.5267 23.6854 13.3066 24.2596C14.0865 24.8338 15.0295 25.1435 15.9979 25.1435C16.9663 25.1435 17.9093 24.8338 18.6892 24.2596C19.4691 23.6854 20.045 22.8769 20.3327 21.9521L25.4743 27.0949C25.6898 27.3031 25.9785 27.4183 26.2781 27.4157C26.5777 27.4131 26.8643 27.2929 27.0761 27.081C27.288 26.8691 27.4082 26.5825 27.4108 26.2828C27.4134 25.9832 27.2982 25.6945 27.0901 25.4789L20.5681 18.9565ZM18.2827 20.5726C18.2827 21.1788 18.0419 21.7602 17.6133 22.1889C17.1848 22.6175 16.6035 22.8584 15.9973 22.8584C15.3912 22.8584 14.8099 22.6175 14.3813 22.1889C13.9527 21.7602 13.7119 21.1788 13.7119 20.5726V11.4298C13.7119 10.8236 13.9527 10.2422 14.3813 9.81354C14.8099 9.38488 15.3912 9.14407 15.9973 9.14407C16.6035 9.14407 17.1848 9.38488 17.6133 9.81354C18.0419 10.2422 18.2827 10.8236 18.2827 11.4298V20.5726Z" fill="#333333"/>
</svg>
