<?xml version="1.0" encoding="UTF-8"?>
<svg xmlns="http://www.w3.org/2000/svg" version="1.1" width="500" height="500" viewBox="0 0 500 500"><g transform="scale(18.519)"><g transform="translate(1,1)"><g><g transform="translate(3.5,3.5)"><path fill-rule="evenodd" d="M-3.5 0C-3.5 3.5 -3.5 3.5 0 3.5C3.5 3.5 3.5 3.5 3.5 0C3.5 -3.5 3.5 -3.5 0 -3.5C-3.5 -3.5 -3.5 -3.5 -3.5 0ZM-2.5 0L-2.5 -1.5A1 1 0 0 1 -1.5 -2.5L1.5 -2.5A1 1 0 0 1 2.5 -1.5L2.5 1.5A1 1 0 0 1 1.5 2.5L-1.5 2.5A1 1 0 0 1 -2.5 1.5Z" fill="#999999"/><path fill-rule="evenodd" d="M-1.5 0C-1.5 1.5 -1.5 1.5 0 1.5C1.5 1.5 1.5 1.5 1.5 0C1.5 -1.5 1.5 -1.5 0 -1.5C-1.5 -1.5 -1.5 -1.5 -1.5 0Z" fill="#999999"/></g></g><g><g transform="translate(21.5,3.5)"><g transform="rotate(90)"><path fill-rule="evenodd" d="M-3.5 0C-3.5 3.5 -3.5 3.5 0 3.5C3.5 3.5 3.5 3.5 3.5 0C3.5 -3.5 3.5 -3.5 0 -3.5C-3.5 -3.5 -3.5 -3.5 -3.5 0ZM-2.5 0L-2.5 -1.5A1 1 0 0 1 -1.5 -2.5L1.5 -2.5A1 1 0 0 1 2.5 -1.5L2.5 1.5A1 1 0 0 1 1.5 2.5L-1.5 2.5A1 1 0 0 1 -2.5 1.5Z" fill="#999999"/><path fill-rule="evenodd" d="M-1.5 0C-1.5 1.5 -1.5 1.5 0 1.5C1.5 1.5 1.5 1.5 1.5 0C1.5 -1.5 1.5 -1.5 0 -1.5C-1.5 -1.5 -1.5 -1.5 -1.5 0Z" fill="#999999"/></g></g></g><g><g transform="translate(3.5,21.5)"><g transform="rotate(-90)"><path fill-rule="evenodd" d="M-3.5 0C-3.5 3.5 -3.5 3.5 0 3.5C3.5 3.5 3.5 3.5 3.5 0C3.5 -3.5 3.5 -3.5 0 -3.5C-3.5 -3.5 -3.5 -3.5 -3.5 0ZM-2.5 0L-2.5 -1.5A1 1 0 0 1 -1.5 -2.5L1.5 -2.5A1 1 0 0 1 2.5 -1.5L2.5 1.5A1 1 0 0 1 1.5 2.5L-1.5 2.5A1 1 0 0 1 -2.5 1.5Z" fill="#999999"/><path fill-rule="evenodd" d="M-1.5 0C-1.5 1.5 -1.5 1.5 0 1.5C1.5 1.5 1.5 1.5 1.5 0C1.5 -1.5 1.5 -1.5 0 -1.5C-1.5 -1.5 -1.5 -1.5 -1.5 0Z" fill="#999999"/></g></g></g><path fill-rule="evenodd" d="M10 0.45L10 1.55A0.45 0.45 0 0 0 10.45 2L11.55 2A0.45 0.45 0 0 1 12 2.45L12 2.55A0.45 0.45 0 0 1 11.55 3L10.45 3A0.45 0.45 0 0 0 10 3.45L10 4.55A0.45 0.45 0 0 0 10.45 5L10.55 5A0.45 0.45 0 0 0 11 4.55L11 4.45A0.45 0.45 0 0 1 11.45 4L11.55 4A0.45 0.45 0 0 1 12 4.45L12 6.55A0.45 0.45 0 0 1 11.55 7L11.45 7A0.45 0.45 0 0 1 11 6.55L11 6.45A0.45 0.45 0 0 0 10.55 6L10.45 6A0.45 0.45 0 0 0 10 6.45L10 8.55A0.45 0.45 0 0 1 9.55 9L9.45 9A0.45 0.45 0 0 0 9 9.45L9 9.55A0.45 0.45 0 0 1 8.55 10L8.45 10A0.45 0.45 0 0 0 8 10.45L8 10.55A0.45 0.45 0 0 1 7.55 11L7.45 11A0.45 0.45 0 0 1 7 10.55L7 10.45A0.45 0.45 0 0 0 6.55 10L6.45 10A0.45 0.45 0 0 1 6 9.55L6 9.45A0.45 0.45 0 0 1 6.45 9L6.55 9A0.45 0.45 0 0 0 7 8.55L7 8.45A0.45 0.45 0 0 0 6.55 8L2.45 8A0.45 0.45 0 0 0 2 8.45L2 9.55A0.45 0.45 0 0 1 1.55 10L0.45 10A0.45 0.45 0 0 0 0 10.45L0 11.55A0.45 0.45 0 0 0 0.45 12L0.55 12A0.45 0.45 0 0 0 1 11.55L1 11.45A0.45 0.45 0 0 1 1.45 11L1.55 11A0.45 0.45 0 0 1 2 11.45L2 11.55A0.45 0.45 0 0 0 2.45 12L2.55 12A0.45 0.45 0 0 0 3 11.55L3 11.45A0.45 0.45 0 0 1 3.45 11L4.55 11A0.45 0.45 0 0 0 5 10.55L5 10.45A0.45 0.45 0 0 1 5.45 10L5.55 10A0.45 0.45 0 0 1 6 10.45L6 10.55A0.45 0.45 0 0 0 6.45 11L6.55 11A0.45 0.45 0 0 1 7 11.45L7 11.55A0.45 0.45 0 0 1 6.55 12L6.45 12A0.45 0.45 0 0 0 6 12.45L6 12.55A0.45 0.45 0 0 1 5.55 13L5.45 13A0.45 0.45 0 0 0 5 13.45L5 13.55A0.45 0.45 0 0 1 4.55 14L4.45 14A0.45 0.45 0 0 1 4 13.55L4 13.45A0.45 0.45 0 0 0 3.55 13L3.45 13A0.45 0.45 0 0 0 3 13.45L3 13.55A0.45 0.45 0 0 1 2.55 14L2.45 14A0.45 0.45 0 0 1 2 13.55L2 13.45A0.45 0.45 0 0 0 1.55 13L0.45 13A0.45 0.45 0 0 0 0 13.45L0 16.55A0.45 0.45 0 0 0 0.45 17L0.55 17A0.45 0.45 0 0 0 1 16.55L1 14.45A0.45 0.45 0 0 1 1.45 14L1.55 14A0.45 0.45 0 0 1 2 14.45L2 14.55A0.45 0.45 0 0 0 2.45 15L2.55 15A0.45 0.45 0 0 1 3 15.45L3 16.55A0.45 0.45 0 0 0 3.45 17L3.55 17A0.45 0.45 0 0 0 4 16.55L4 15.45A0.45 0.45 0 0 1 4.45 15L4.55 15A0.45 0.45 0 0 0 5 14.55L5 14.45A0.45 0.45 0 0 1 5.45 14L5.55 14A0.45 0.45 0 0 1 6 14.45L6 14.55A0.45 0.45 0 0 0 6.45 15L6.55 15A0.45 0.45 0 0 0 7 14.55L7 14.45A0.45 0.45 0 0 1 7.45 14L8.55 14A0.45 0.45 0 0 0 9 13.55L9 13.45A0.45 0.45 0 0 1 9.45 13L9.55 13A0.45 0.45 0 0 1 10 13.45L10 13.55A0.45 0.45 0 0 0 10.45 14L10.55 14A0.45 0.45 0 0 0 11 13.55L11 13.45A0.45 0.45 0 0 0 10.55 13L10.45 13A0.45 0.45 0 0 1 10 12.55L10 12.45A0.45 0.45 0 0 0 9.55 12L9.45 12A0.45 0.45 0 0 0 9 12.45L9 12.55A0.45 0.45 0 0 1 8.55 13L7.45 13A0.45 0.45 0 0 1 7 12.55L7 12.45A0.45 0.45 0 0 1 7.45 12L7.55 12A0.45 0.45 0 0 0 8 11.55L8 11.45A0.45 0.45 0 0 1 8.45 11L9.55 11A0.45 0.45 0 0 0 10 10.55L10 9.45A0.45 0.45 0 0 1 10.45 9L10.55 9A0.45 0.45 0 0 1 11 9.45L11 10.55A0.45 0.45 0 0 0 11.45 11L11.55 11A0.45 0.45 0 0 0 12 10.55L12 10.45A0.45 0.45 0 0 1 12.45 10L12.55 10A0.45 0.45 0 0 1 13 10.45L13 10.55A0.45 0.45 0 0 0 13.45 11L13.55 11A0.45 0.45 0 0 1 14 11.45L14 11.55A0.45 0.45 0 0 0 14.45 12L14.55 12A0.45 0.45 0 0 1 15 12.45L15 12.55A0.45 0.45 0 0 0 15.45 13L15.55 13A0.45 0.45 0 0 1 16 13.45L16 13.55A0.45 0.45 0 0 0 16.45 14L16.55 14A0.45 0.45 0 0 1 17 14.45L17 14.55A0.45 0.45 0 0 0 17.45 15L18.55 15A0.45 0.45 0 0 0 19 14.55L19 14.45A0.45 0.45 0 0 1 19.45 14L19.55 14A0.45 0.45 0 0 1 20 14.45L20 14.55A0.45 0.45 0 0 0 20.45 15L20.55 15A0.45 0.45 0 0 0 21 14.55L21 13.45A0.45 0.45 0 0 1 21.45 13L21.55 13A0.45 0.45 0 0 0 22 12.55L22 12.45A0.45 0.45 0 0 0 21.55 12L18.45 12A0.45 0.45 0 0 1 18 11.55L18 11.45A0.45 0.45 0 0 1 18.45 11L18.55 11A0.45 0.45 0 0 0 19 10.55L19 10.45A0.45 0.45 0 0 1 19.45 10L19.55 10A0.45 0.45 0 0 1 20 10.45L20 10.55A0.45 0.45 0 0 0 20.45 11L20.55 11A0.45 0.45 0 0 0 21 10.55L21 9.45A0.45 0.45 0 0 1 21.45 9L22.55 9A0.45 0.45 0 0 0 23 8.55L23 8.45A0.45 0.45 0 0 0 22.55 8L18.45 8A0.45 0.45 0 0 0 18 8.45L18 8.55A0.45 0.45 0 0 1 17.55 9L17.45 9A0.45 0.45 0 0 0 17 9.45L17 9.55A0.45 0.45 0 0 1 16.55 10L16.45 10A0.45 0.45 0 0 1 16 9.55L16 8.45A0.45 0.45 0 0 1 16.45 8L16.55 8A0.45 0.45 0 0 0 17 7.55L17 6.45A0.45 0.45 0 0 0 16.55 6L16.45 6A0.45 0.45 0 0 1 16 5.55L16 4.45A0.45 0.45 0 0 1 16.45 4L16.55 4A0.45 0.45 0 0 0 17 3.55L17 2.45A0.45 0.45 0 0 0 16.55 2L16.45 2A0.45 0.45 0 0 1 16 1.55L16 1.45A0.45 0.45 0 0 1 16.45 1L16.55 1A0.45 0.45 0 0 0 17 0.55L17 0.45A0.45 0.45 0 0 0 16.55 0L16.45 0A0.45 0.45 0 0 0 16 0.45L16 0.55A0.45 0.45 0 0 1 15.55 1L15.45 1A0.45 0.45 0 0 1 15 0.55L15 0.45A0.45 0.45 0 0 0 14.55 0L14.45 0A0.45 0.45 0 0 0 14 0.45L14 0.55A0.45 0.45 0 0 1 13.55 1L13.45 1A0.45 0.45 0 0 0 13 1.45L13 1.55A0.45 0.45 0 0 1 12.55 2L12.45 2A0.45 0.45 0 0 1 12 1.55L12 1.45A0.45 0.45 0 0 0 11.55 1L11.45 1A0.45 0.45 0 0 1 11 0.55L11 0.45A0.45 0.45 0 0 0 10.55 0L10.45 0A0.45 0.45 0 0 0 10 0.45ZM8 2.45L8 7.55A0.45 0.45 0 0 0 8.45 8L8.55 8A0.45 0.45 0 0 0 9 7.55L9 2.45A0.45 0.45 0 0 0 8.55 2L8.45 2A0.45 0.45 0 0 0 8 2.45ZM13 2.45L13 2.55A0.45 0.45 0 0 1 12.55 3L12.45 3A0.45 0.45 0 0 0 12 3.45L12 3.55A0.45 0.45 0 0 0 12.45 4L12.55 4A0.45 0.45 0 0 1 13 4.45L13 4.55A0.45 0.45 0 0 0 13.45 5L13.55 5A0.45 0.45 0 0 1 14 5.45L14 5.55A0.45 0.45 0 0 1 13.55 6L13.45 6A0.45 0.45 0 0 0 13 6.45L13 6.55A0.45 0.45 0 0 1 12.55 7L12.45 7A0.45 0.45 0 0 0 12 7.45L12 7.55A0.45 0.45 0 0 0 12.45 8L12.55 8A0.45 0.45 0 0 0 13 7.55L13 7.45A0.45 0.45 0 0 1 13.45 7L13.55 7A0.45 0.45 0 0 1 14 7.45L14 7.55A0.45 0.45 0 0 0 14.45 8L15.55 8A0.45 0.45 0 0 0 16 7.55L16 6.45A0.45 0.45 0 0 0 15.55 6L15.45 6A0.45 0.45 0 0 1 15 5.55L15 5.45A0.45 0.45 0 0 0 14.55 5L14.45 5A0.45 0.45 0 0 1 14 4.55L14 3.45A0.45 0.45 0 0 1 14.45 3L15.55 3A0.45 0.45 0 0 0 16 2.55L16 2.45A0.45 0.45 0 0 0 15.55 2L13.45 2A0.45 0.45 0 0 0 13 2.45ZM14 6.45L14 6.55A0.45 0.45 0 0 0 14.45 7L14.55 7A0.45 0.45 0 0 0 15 6.55L15 6.45A0.45 0.45 0 0 0 14.55 6L14.45 6A0.45 0.45 0 0 0 14 6.45ZM0 8.45L0 8.55A0.45 0.45 0 0 0 0.45 9L0.55 9A0.45 0.45 0 0 0 1 8.55L1 8.45A0.45 0.45 0 0 0 0.55 8L0.45 8A0.45 0.45 0 0 0 0 8.45ZM3 9.45L3 9.55A0.45 0.45 0 0 1 2.55 10L2.45 10A0.45 0.45 0 0 0 2 10.45L2 10.55A0.45 0.45 0 0 0 2.45 11L2.55 11A0.45 0.45 0 0 0 3 10.55L3 10.45A0.45 0.45 0 0 1 3.45 10L3.55 10A0.45 0.45 0 0 0 4 9.55L4 9.45A0.45 0.45 0 0 0 3.55 9L3.45 9A0.45 0.45 0 0 0 3 9.45ZM13 9.45L13 9.55A0.45 0.45 0 0 0 13.45 10L13.55 10A0.45 0.45 0 0 1 14 10.45L14 10.55A0.45 0.45 0 0 0 14.45 11L14.55 11A0.45 0.45 0 0 1 15 11.45L15 11.55A0.45 0.45 0 0 0 15.45 12L15.55 12A0.45 0.45 0 0 1 16 12.45L16 12.55A0.45 0.45 0 0 0 16.45 13L16.55 13A0.45 0.45 0 0 1 17 13.45L17 13.55A0.45 0.45 0 0 0 17.45 14L18.55 14A0.45 0.45 0 0 0 19 13.55L19 13.45A0.45 0.45 0 0 0 18.55 13L17.45 13A0.45 0.45 0 0 1 17 12.55L17 12.45A0.45 0.45 0 0 0 16.55 12L16.45 12A0.45 0.45 0 0 1 16 11.55L16 11.45A0.45 0.45 0 0 0 15.55 11L15.45 11A0.45 0.45 0 0 1 15 10.55L15 10.45A0.45 0.45 0 0 0 14.55 10L14.45 10A0.45 0.45 0 0 1 14 9.55L14 9.45A0.45 0.45 0 0 0 13.55 9L13.45 9A0.45 0.45 0 0 0 13 9.45ZM18 9.45L18 9.55A0.45 0.45 0 0 0 18.45 10L18.55 10A0.45 0.45 0 0 0 19 9.55L19 9.45A0.45 0.45 0 0 0 18.55 9L18.45 9A0.45 0.45 0 0 0 18 9.45ZM24 9.45L24 9.55A0.45 0.45 0 0 0 24.45 10L24.55 10A0.45 0.45 0 0 0 25 9.55L25 9.45A0.45 0.45 0 0 0 24.55 9L24.45 9A0.45 0.45 0 0 0 24 9.45ZM22 10.45L22 10.55A0.45 0.45 0 0 0 22.45 11L22.55 11A0.45 0.45 0 0 0 23 10.55L23 10.45A0.45 0.45 0 0 0 22.55 10L22.45 10A0.45 0.45 0 0 0 22 10.45ZM12 12.45L12 15.55A0.45 0.45 0 0 0 12.45 16L13.55 16A0.45 0.45 0 0 0 14 15.55L14 15.45A0.45 0.45 0 0 1 14.45 15L14.55 15A0.45 0.45 0 0 0 15 14.55L15 14.45A0.45 0.45 0 0 0 14.55 14L13.45 14A0.45 0.45 0 0 1 13 13.55L13 12.45A0.45 0.45 0 0 0 12.55 12L12.45 12A0.45 0.45 0 0 0 12 12.45ZM23 12.45L23 12.55A0.45 0.45 0 0 0 23.45 13L23.55 13A0.45 0.45 0 0 1 24 13.45L24 13.55A0.45 0.45 0 0 0 24.45 14L24.55 14A0.45 0.45 0 0 0 25 13.55L25 12.45A0.45 0.45 0 0 0 24.55 12L23.45 12A0.45 0.45 0 0 0 23 12.45ZM6 13.45L6 13.55A0.45 0.45 0 0 0 6.45 14L6.55 14A0.45 0.45 0 0 0 7 13.55L7 13.45A0.45 0.45 0 0 0 6.55 13L6.45 13A0.45 0.45 0 0 0 6 13.45ZM3 14.45L3 14.55A0.45 0.45 0 0 0 3.45 15L3.55 15A0.45 0.45 0 0 0 4 14.55L4 14.45A0.45 0.45 0 0 0 3.55 14L3.45 14A0.45 0.45 0 0 0 3 14.45ZM22 14.45L22 14.55A0.45 0.45 0 0 0 22.45 15L22.55 15A0.45 0.45 0 0 1 23 15.45L23 15.55A0.45 0.45 0 0 0 23.45 16L23.55 16A0.45 0.45 0 0 1 24 16.45L24 17.55A0.45 0.45 0 0 1 23.55 18L22.45 18A0.45 0.45 0 0 0 22 18.45L22 18.55A0.45 0.45 0 0 1 21.55 19L21.45 19A0.45 0.45 0 0 1 21 18.55L21 17.45A0.45 0.45 0 0 1 21.45 17L21.55 17A0.45 0.45 0 0 0 22 16.55L22 16.45A0.45 0.45 0 0 0 21.55 16L15.45 16A0.45 0.45 0 0 0 15 16.45L15 16.55A0.45 0.45 0 0 0 15.45 17L15.55 17A0.45 0.45 0 0 1 16 17.45L16 19.55A0.45 0.45 0 0 1 15.55 20L15.45 20A0.45 0.45 0 0 1 15 19.55L15 18.45A0.45 0.45 0 0 0 14.55 18L12.45 18A0.45 0.45 0 0 0 12 18.45L12 18.55A0.45 0.45 0 0 0 12.45 19L13.55 19A0.45 0.45 0 0 1 14 19.45L14 22.55A0.45 0.45 0 0 1 13.55 23L13.45 23A0.45 0.45 0 0 1 13 22.55L13 22.45A0.45 0.45 0 0 0 12.55 22L12.45 22A0.45 0.45 0 0 1 12 21.55L12 21.45A0.45 0.45 0 0 0 11.55 21L11.45 21A0.45 0.45 0 0 0 11 21.45L11 22.55A0.45 0.45 0 0 0 11.45 23L12.55 23A0.45 0.45 0 0 1 13 23.45L13 24.55A0.45 0.45 0 0 0 13.45 25L13.55 25A0.45 0.45 0 0 0 14 24.55L14 23.45A0.45 0.45 0 0 1 14.45 23L14.55 23A0.45 0.45 0 0 0 15 22.55L15 21.45A0.45 0.45 0 0 1 15.45 21L15.55 21A0.45 0.45 0 0 1 16 21.45L16 21.55A0.45 0.45 0 0 0 16.45 22L16.55 22A0.45 0.45 0 0 1 17 22.45L17 23.55A0.45 0.45 0 0 0 17.45 24L21.55 24A0.45 0.45 0 0 1 22 24.45L22 24.55A0.45 0.45 0 0 0 22.45 25L24.55 25A0.45 0.45 0 0 0 25 24.55L25 24.45A0.45 0.45 0 0 0 24.55 24L24.45 24A0.45 0.45 0 0 1 24 23.55L24 23.45A0.45 0.45 0 0 1 24.45 23L24.55 23A0.45 0.45 0 0 0 25 22.55L25 21.45A0.45 0.45 0 0 0 24.55 21L23.45 21A0.45 0.45 0 0 0 23 21.45L23 21.55A0.45 0.45 0 0 1 22.55 22L22.45 22A0.45 0.45 0 0 0 22 22.45L22 22.55A0.45 0.45 0 0 1 21.55 23L21.45 23A0.45 0.45 0 0 1 21 22.55L21 21.45A0.45 0.45 0 0 1 21.45 21L21.55 21A0.45 0.45 0 0 0 22 20.55L22 19.45A0.45 0.45 0 0 1 22.45 19L24.55 19A0.45 0.45 0 0 0 25 18.55L25 15.45A0.45 0.45 0 0 0 24.55 15L23.45 15A0.45 0.45 0 0 1 23 14.55L23 14.45A0.45 0.45 0 0 0 22.55 14L22.45 14A0.45 0.45 0 0 0 22 14.45ZM10 15.45L10 16.55A0.45 0.45 0 0 1 9.55 17L8.45 17A0.45 0.45 0 0 0 8 17.45L8 17.55A0.45 0.45 0 0 0 8.45 18L8.55 18A0.45 0.45 0 0 1 9 18.45L9 18.55A0.45 0.45 0 0 1 8.55 19L8.45 19A0.45 0.45 0 0 0 8 19.45L8 22.55A0.45 0.45 0 0 0 8.45 23L8.55 23A0.45 0.45 0 0 0 9 22.55L9 22.45A0.45 0.45 0 0 1 9.45 22L9.55 22A0.45 0.45 0 0 0 10 21.55L10 21.45A0.45 0.45 0 0 0 9.55 21L9.45 21A0.45 0.45 0 0 1 9 20.55L9 19.45A0.45 0.45 0 0 1 9.45 19L9.55 19A0.45 0.45 0 0 0 10 18.55L10 18.45A0.45 0.45 0 0 1 10.45 18L10.55 18A0.45 0.45 0 0 0 11 17.55L11 15.45A0.45 0.45 0 0 0 10.55 15L10.45 15A0.45 0.45 0 0 0 10 15.45ZM6 16.45L6 16.55A0.45 0.45 0 0 0 6.45 17L6.55 17A0.45 0.45 0 0 0 7 16.55L7 16.45A0.45 0.45 0 0 0 6.55 16L6.45 16A0.45 0.45 0 0 0 6 16.45ZM17 17.45L17 19.55A0.45 0.45 0 0 0 17.45 20L19.55 20A0.45 0.45 0 0 0 20 19.55L20 17.45A0.45 0.45 0 0 0 19.55 17L17.45 17A0.45 0.45 0 0 0 17 17.45ZM18 18.45L18 18.55A0.45 0.45 0 0 0 18.45 19L18.55 19A0.45 0.45 0 0 0 19 18.55L19 18.45A0.45 0.45 0 0 0 18.55 18L18.45 18A0.45 0.45 0 0 0 18 18.45ZM17 21.45L17 21.55A0.45 0.45 0 0 0 17.45 22L18.55 22A0.45 0.45 0 0 1 19 22.45L19 22.55A0.45 0.45 0 0 0 19.45 23L19.55 23A0.45 0.45 0 0 0 20 22.55L20 21.45A0.45 0.45 0 0 0 19.55 21L17.45 21A0.45 0.45 0 0 0 17 21.45ZM23 22.45L23 22.55A0.45 0.45 0 0 1 22.55 23L22.45 23A0.45 0.45 0 0 0 22 23.45L22 23.55A0.45 0.45 0 0 0 22.45 24L22.55 24A0.45 0.45 0 0 0 23 23.55L23 23.45A0.45 0.45 0 0 1 23.45 23L23.55 23A0.45 0.45 0 0 0 24 22.55L24 22.45A0.45 0.45 0 0 0 23.55 22L23.45 22A0.45 0.45 0 0 0 23 22.45ZM8 24.45L8 24.55A0.45 0.45 0 0 0 8.45 25L8.55 25A0.45 0.45 0 0 0 9 24.55L9 24.45A0.45 0.45 0 0 0 8.55 24L8.45 24A0.45 0.45 0 0 0 8 24.45ZM10 24.45L10 24.55A0.45 0.45 0 0 0 10.45 25L10.55 25A0.45 0.45 0 0 0 11 24.55L11 24.45A0.45 0.45 0 0 0 10.55 24L10.45 24A0.45 0.45 0 0 0 10 24.45Z" fill="#999999"/></g></g></svg>
